<svg xmlns="http://www.w3.org/2000/svg" viewBox="0 0 570.78 389.64">
    <defs>
        <radialGradient id="Degradado_sin_nombre_29" cx="206.8" cy="244.93" r="159.89" gradientUnits="userSpaceOnUse"><stop offset="0" stop-color="#4b596d" stop-opacity="0" /><stop offset="1" stop-color="#b9efff" /></radialGradient>
        <style>
            .cls-2 {
                fill: #ebfbff
            }

            .cls-3 {
                fill: none
            }

            .cls-4 {
                fill: #c7f1ff
            }

            .cls-7 {
                fill: #b9ceeb
            }

            .cls-8 {
                fill: #c7f0db
            }

            .cls-10 {
                fill: #fff
            }

            .cls-12 {
                fill: #ef907b
            }

            .cls-13 {
                fill: #283965
            }

            .cls-14 {
                fill: #efc3a5
            }

            .cls-15 {
                fill: #aa2643
            }

            .cls-16 {
                fill: #eda9a2
            }

            .cls-17 {
                fill: #304572
            }

            .cls-18 {
                fill: #101b48
            }

            .cls-19 {
                fill: #ededed
            }

            .cls-20 {
                fill: #bcbcbc
            }

            .cls-22 {
                fill: #a5e7f9
            }

            .cls-23 {
                fill: #7fd8ef
            }
        </style>
    </defs>
    <g style="isolation:isolate"><g id="Layer_2" data-name="Layer 2"><g id="OBJECTS"><path class="cls-2" d="M367 168.74a99.47 99.47 0 01-8.59 9.82q-7 7-13.36 14.64c-14.55 17.44-26.32 37-36.2 57.44-7.68 15.89-12.14 32.89-19.88 48.69q-.93 1.9-1.92 3.77a151.32 151.32 0 01-27 36.75 149.7 149.7 0 01-46 31.05c-36.61 16-79.58 18.66-116.86 5.51l-.8-.29c-39-14-55.89-41.16-62.78-66.28A132.11 132.11 0 0131 254.12s20.72-73.22 49.57-103.57c6.3-6.63 15.19-12.45 25.65-17.78 37.42-19.09 94.93-32 125.83-54.21 36-25.81 76.64-37.38 111.3-21.84l.87.41a79.92 79.92 0 019.25 5c.68.44 1.35.87 2 1.33l.43.29a65.08 65.08 0 0117.46 17.92 66.06 66.06 0 016.86 13.69 67.9 67.9 0 012.75 9.66c4.23 20.32-.45 43.39-15.97 63.72z" /><path class="cls-3" d="M367.11 169.14a99.47 99.47 0 01-8.59 9.82q-7 7-13.36 14.64c-14.55 17.44-26.32 37-36.2 57.44-7.68 15.89-12.14 32.89-19.88 48.69q-.93 1.9-1.92 3.77a151.32 151.32 0 01-27 36.75 149.7 149.7 0 01-46 31.05c-36.61 16-79.58 18.66-116.86 5.51l-.8-.29c-39-14-55.89-41.16-62.78-66.28a132.11 132.11 0 01-2.48-55.72S51.87 181.31 80.72 151s111.95-43.66 151.48-72c36-25.81 76.64-37.38 111.3-21.84l.87.41a79.92 79.92 0 019.25 5c.68.44 1.35.87 2 1.33l.43.29a65.08 65.08 0 0117.46 17.92 66.06 66.06 0 016.89 13.69c8.18 22.38 4.8 49.71-13.29 73.34z" /><path class="cls-4" d="M295 46.22a163.8 163.8 0 00-34.58 11c-.45.2-.06.85.38.66A162.9 162.9 0 01295.22 47c.48-.14.28-.88-.22-.78z" /><path d="M367 168.74a99.47 99.47 0 01-8.59 9.82q-7 7-13.36 14.64c-14.55 17.44-26.32 37-36.2 57.44-7.68 15.89-12.14 32.89-19.88 48.69q-.93 1.9-1.92 3.77a151.32 151.32 0 01-27 36.75 149.7 149.7 0 01-46 31.05c-36.61 16-79.58 18.66-116.86 5.51l-.8-.29c-38.16-13.71-55.14-40-62.32-64.64-.16-.55-.31-1.09-.47-1.64a120.29 120.29 0 01-3.57-19.16c-.11-1-.2-1.9-.28-2.84A128.76 128.76 0 0131 254.12s20.72-73.22 49.57-103.57c6.3-6.63 15.19-12.45 25.65-17.78A180.11 180.11 0 00141 155.22c24.07 12 50.18 19.37 76.38 25.42 10.81 2.5 51.55 5.35 60.46 3.65 76-14.55 91.87-74.84 105.12-79.23 4.24 20.28-.44 43.35-15.96 63.68z" style="mix-blend-mode:multiply" opacity=".4" fill="url(#Degradado_sin_nombre_29)" /><path d="M284.71 150.11a27.68 27.68 0 11-16.52-25.34 27.7 27.7 0 0116.52 25.34z" fill="#94e2f7" /><path class="cls-4" d="M274.35 142.19a27.69 27.69 0 01-38.86 25.35 27.69 27.69 0 0132.69-42.76 27.57 27.57 0 016.17 17.41z" /><path class="cls-7" d="M305.55 272.89a112.52 112.52 0 01-18.78 37.55c-.3.39.36.77.66.38a113.08 113.08 0 0018.85-37.73.38.38 0 00-.73-.2z" /><path class="cls-4" d="M278.67 80.44v.35a8.77 8.77 0 01-14.89 5.92 9.49 9.49 0 01-.74-.82 8.9 8.9 0 01-1.61-3.23l.44-.21-.41-.92-.23.11a9.35 9.35 0 01-.08-1.2 8.77 8.77 0 0116.41-4.3l-.39.15.42.93c.12-.06.26-.11.42-.17a8.75 8.75 0 01.65 2.62q.01.39.01.77z" /><path class="cls-8" d="M261.86 82.45l-.44.21a8.73 8.73 0 01-.2-1l.23-.11zM278 77.05c-.15.06-.29.11-.42.17l-.42-.93.39-.15a9.52 9.52 0 01.45.91z" /><path d="M282.93 77.05c.11 1-1.65 2.33-4.27 3.74a85.44 85.44 0 01-14.89 5.92c-.88.25-1.67.46-2.36.61a13.81 13.81 0 01-2.77.39c-1 0-1.51-.26-1.68-.79-.85-2.6 3.21-4.77 4.26-5.28a8.73 8.73 0 00.2 1c-1.44.73-4 2.4-3.49 3.94.39.34 2.35.05 5.1-.71a86 86 0 0013-4.89c1-.49 1.87-.92 2.58-1.32 2.66-1.46 3.29-2.28 3.27-2.5a.66.66 0 00-.34-.59c-.73-.43-2.43 0-3.58.47a9.52 9.52 0 00-.45-.91c.93-.37 3.25-1.17 4.53-.44a1.7 1.7 0 01.89 1.36z" fill="#6076c2" /><circle class="cls-10" cx="226.71" cy="99.89" r="1.11" /><circle class="cls-10" cx="310.86" cy="82.73" r="1.11" /><circle class="cls-10" cx="286.63" cy="106.15" r="1.11" /><circle class="cls-10" cx="267.4" cy="264" r="1.11" /><circle class="cls-10" cx="271.55" cy="196.08" r="1.11" /><circle class="cls-10" cx="293.04" cy="244.93" r="1.11" /><circle class="cls-10" cx="202.87" cy="120.47" r="1.11" /><circle class="cls-10" cx="306.94" cy="130.34" r="1.11" /><circle class="cls-10" cx="257.55" cy="235.15" r="1.11" /><circle class="cls-10" cx="316.5" cy="199.15" r="1.11" /><circle class="cls-10" cx="304.73" cy="61.56" r="1.11" /><path d="M385.49 180.18c.11.13.1.14 0 0s-.01.02 0 0z" style="mix-blend-mode:multiply" opacity=".44" fill="#c7f0db" /><path class="cls-12" d="M154.1 107.34s-3.78-10.52-15-10.2S100 97.8 91.76 111s-10.51 22.36-27.28 21.38S39.82 154.92 46.07 163c-10.52-7-33.22 10.74-20.72 30.47-23.68 7.56-34.86 44.07-1 67.75s63.8-1.32 63.8-1.32l70.05-21.71 30.91-18.09 26 16.12 20.72-25.56L223 163.87l-26.64-20.32S192.12 123 172 128.05c1-12.49-3.92-24.05-17.9-20.71z" /><path class="cls-3" d="M153.83 107.5s-3.15-10.69-14.34-10.36-39.17.66-47.37 13.86-10.51 22.36-27.28 21.38S40.17 154.92 46.42 163c-10.52-7-33.22 10.77-20.72 30.5-23.68 7.56-34.86 44.07-1 67.75s63.8-1.32 63.8-1.32l70.05-21.71 30.91-18.09 26 16.12 20.72-25.56-12.83-46.82-26.64-20.32s-4.24-20.54-24.34-15.49c.03-13.06-4.86-24.06-18.54-20.56z" /><path class="cls-12" d="M64.67 129.58c-6.65 1-13.19 2.39-18 7.44-4.1 4.29-6.27 10-7.57 15.66-.11.48.62.68.73.2 1.27-5.55 3.37-11.14 7.37-15.33 4.73-5 11.19-6.24 17.67-7.24.48-.07.28-.8-.2-.73zM21.11 188.71c-4-5.13-2.52-10.51-1-16.23a.38.38 0 00-.73-.2c-1.65 6.11-3.06 11.6 1.17 17 .33.35.86-.19.56-.57zM11.25 198.25C4.49 203-.46 208.55 0 217.29c0 .49.79.49.76 0-.48-8.49 4.28-13.76 10.84-18.38.4-.28.05-.91-.35-.66z" /><path class="cls-13" d="M104.32 201.88s21.9-12.73 51.51-8l2.73 16.83s-.72 22.31-49.76 15a233.43 233.43 0 01-4.48-23.83z" /><path class="cls-14" d="M163.35 173.91c-1.63 9.52-16.6 13.62-16.6 13.62l2.48 15.6.42 2.62c-12.77 10.38-37.46 1.19-37.46 1.19L100.7 153.1c7-1.87 31.71-9.93 34.16-30.68 5.24 7.77 18.25 11.37 25 12.75 1.14 10.61 4.91 30.51 3.49 38.74z" /><path class="cls-15" d="M143 147.37l6.27 13.47.45-1.1-5.33 1.57a.75.75 0 00.4 1.45l5.33-1.57a.76.76 0 00.45-1.1l-6.27-13.47c-.41-.87-1.7-.11-1.3.76zM127.87 162.23c1.75 6 7.45 9.08 13.45 8.15 1-.15.55-1.59-.4-1.45a10.11 10.11 0 01-11.61-7.1.75.75 0 00-1.45.4zM124 148.27h6.16a.75.75 0 000-1.5H124a.75.75 0 000 1.5z" /><ellipse class="cls-15" cx="153.42" cy="143.91" rx="1.38" ry="3.04" /><circle class="cls-14" cx="99.45" cy="162.2" r="9.34" /><path class="cls-15" d="M93.2 163.21a8.5 8.5 0 0112.11-1.45c.78.57 1.53-.73.76-1.3a9.92 9.92 0 00-13.93 1.68c-.61.74.44 1.8 1.06 1.06z" /><path class="cls-15" d="M101 159.72c.83 2.67-2 4.6-4.11 5.39-.9.33-.51 1.78.4 1.45 2.88-1.07 6.25-3.7 5.16-7.23-.28-.92-1.73-.53-1.45.4z" /><circle class="cls-16" cx="126.21" cy="160.21" r="4.83" /><path class="cls-3" d="M149.23 203.13c-13.46 1.53-18.44-13-18.44-13l16-2.6z" /><circle class="cls-16" cx="157.55" cy="155.38" r="4.83" /><path class="cls-17" d="M248.36 227.42c-1.65 21.87-4.13 46.2-25.63 49.78s-35.83-11.85-35.83-11.85l20.34-32.25 6.5-34.25 1.9-10L216 187l6.48-34.12 20.11 3.9s2.62 17.22 4.41 35.78c0 .25.05.52.07.77.35 3.74.67 7.53.92 11.23a172.88 172.88 0 01.37 22.86z" /><path class="cls-18" d="M220.41 215.3l-3 38.82c0 .48.71.48.75 0l3-38.82c0-.48-.71-.48-.75 0z" /><path class="cls-19" d="M248 204.56c-8.33 1.89-19.93.29-29.85-5.41-1.75-1-3.29.58-4.39-.3l1.9-10a20.24 20.24 0 012.36-.65s11.86 6.68 29 4.37c0 .25.05.52.07.77.33 3.73.64 7.52.91 11.22z" /><path class="cls-12" d="M247.06 193.33c-12.52 3.62-24.78-2.38-31.07-6.34l6.48-34.12 20.11 3.9s2.7 17.7 4.48 36.56z" /><path class="cls-3" d="M248 204.56c-.25-3.7-.57-7.49-.92-11.23-8.89 3.42-22.42-1.66-22.42-1.66l-17 41.44-20.34 32.25s14.33 15.43 35.83 11.85 23.6-27.91 25.25-49.78a172.88 172.88 0 00-.4-22.87z" /><path class="cls-10" d="M254.53 159.52a1.62 1.62 0 01-1.43.59c-5.89-.65-38-4.21-63.48-7.43l-7.84-1c-5.09-.67-9.72-1.32-13.57-1.9-1.13-.16-2.21-.33-3.19-.49-4.7-.76-7.7-1.38-8.11-1.76a4.39 4.39 0 01-.84-4.43 3 3 0 012.71-2.29l6.65-.49 3.74-.25 13.44-1 8.33-.56c22.08-1.5 49.35-3.22 63.8-3.68a1.65 1.65 0 011.57 1c5.41 11.75.76 20.67-1.78 23.69z" /><path class="cls-19" d="M168.21 149.77c-.32-2.28-.67-6.75 1-9.71l-3.74.25c-1 1.71-1.82 4.64-.41 9zM189.62 152.68l-7.84-1c-2-6.52-.7-10.39.82-12.56l8.33-.56c-2.16 4.11-1.7 10.88-1.31 14.12z" /><path class="cls-20" d="M254.27 160.64l-.12.07-.18.1-8.46-.76-8.58-.77c-8.15-13.15.82-24.54.82-24.54l9.37-.23 9.19-.23h1.25c6.03 19.31-1.64 25.33-3.29 26.36z" /><path d="M254.27 160.64c-.89-1.53-1.95-4.39-2.24-9.57-.53-9.49 2.23-14.79 2.23-14.79a5.05 5.05 0 013.29-2c6.04 19.31-1.63 25.33-3.28 26.36z" fill="#9e9e9e" /><path class="cls-18" d="M257.55 146.86c0 6-3 11.4-3.93 11.4s-1.62-5.13-1.62-10.77 1.6-11.35 2.5-11.35 3.05 4.32 3.05 10.72z" /><path class="cls-10" d="M247.11 134.52c-2.32 2.93-7.35 11.49-1.61 25.54l8.46.76.18-.1c-1.42-4.86-4.21-17.62 2.16-26.43z" /><path class="cls-18" d="M245.2 136.46l-8.2-.06a.38.38 0 000 .76l8.21.06a.38.38 0 00-.01-.76zM243.52 139.81q-4 .06-8.05-.28c-.49 0-.48.72 0 .76q4 .34 8.05.28a.38.38 0 000-.76zM242.41 144.14q-4.27 0-8.53-.2c-.49 0-.49.74 0 .76q4.26.15 8.53.2a.38.38 0 000-.76zM242.57 149.15q-4.38.19-8.77.06a.38.38 0 000 .76q4.38.13 8.77-.06c.48-.02.49-.78 0-.76zM243.84 155h-8.61a.38.38 0 000 .76h8.61a.38.38 0 000-.76z" /><path class="cls-17" d="M104.32 201.88s32.37 3.61 51.51-8l2.32 14.3s-46.4 18.55-50.5 12.68c-2.31-3.31-3.33-18.98-3.33-18.98z" /><path class="cls-17" d="M234.49 158a143.7 143.7 0 01-5.56 36.34c-.21.79-.44 1.58-.67 2.36-.46 1.57-.93 3.14-1.43 4.68-10.43 32.78-28.15 59.26-31.21 62.76-.52.59 1.25 6.57 1.4 7.52.58 3.54 1.08 7.1 1.54 10.66 1.81 14 3.16 28.07 4.42 42.13 1.21 13.48 3.39 27.28 3.2 40.81 0 3 .32 8.5-2 10.84-39.83 29.87-109 0-109 0s9.11-29.93 21.38-43.34c2-2.14 1.66-5 2.07-6.5a9 9 0 00.36-1.66c-2.2-.55-7.24-1.5-6.75-2.57-.42-.19-.83-.41-1.26-.65-16-8.84-36.77-46.93-39.7-67.56-3.75-26.42 94.54-64.53 116-39.68 3.78-4.78 8.15-12.61 12.17-20.64.77-1.54 1.53-3.09 2.27-4.63.6-1.24 1.18-2.46 1.74-3.67 5.16-11 9-20.44 9-20.44-6.48-1.72-7-16.54-3.2-21.22 2.82-3.49 2.92 8.41 2.92 8.41s1.56-10 5.51-11 1.15 10 1 10.7c.26-.63 1.61-7.35 6.68-7.35 2.18 0 .6 4.3 1.6 8.57s7.52 5.13 7.52 5.13z" /><path class="cls-18" d="M112 322.31c3 2.47 7.63 2.88 11.29 2.62 12.42-.9 23.35-9.51 32.29-17.4a314.93 314.93 0 0047.62-53.21c.28-.39-.37-.77-.65-.38a326.32 326.32 0 01-41.23 47.31c-9.93 9.41-21.63 20.34-35.7 22.65-4.07.67-9.69.72-13.09-2.11-.37-.31-.9.22-.53.53zM187 214a284.91 284.91 0 01-22.48 25.94c-14.17 14.69-30.05 29.09-48.87 37.51-.44.2-.06.84.38.65 18.86-8.44 34.82-22.9 49-37.62a287.07 287.07 0 0022.6-26.09c.29-.39-.36-.76-.65-.38z" /><path class="cls-18" d="M110.71 250.65c5.43 7 10.91 14.62 17.62 20.47.36.32.89-.21.53-.53-6.71-5.85-12.19-13.46-17.62-20.47-.3-.38-.82.15-.53.53zM153.62 196.18l1.92 12.08c.08.48.8.27.72-.2L154.35 196c-.08-.48-.8-.27-.72.2zM145.52 199.24l2 12.6c.08.48.8.27.72-.2l-2-12.6c-.08-.48-.8-.27-.72.2zM136.6 201.77l1.91 11.76c.08.48.8.27.72-.2l-1.91-11.76c-.08-.48-.8-.27-.72.2zM126.07 203.12l1.93 11.63c.08.48.8.27.72-.2l-1.88-11.63c-.08-.48-.8-.27-.72.2zM116.39 203.34l1.85 11.42c.08.48.8.27.72-.2l-1.85-11.42c-.08-.48-.8-.27-.72.2zM107.6 203.12l1.88 11.63c.08.48.8.27.72-.2l-1.88-11.63c-.08-.48-.8-.27-.72.2z" /><path class="cls-14" d="M234.5 158a146.26 146.26 0 01-6.23 38.7c-12.19 2.27-21.42-3.43-26.5-7.83 6-12.48 10.76-24.11 10.76-24.11-6.48-1.72-7-16.54-3.2-21.22.75-.93 1.78-1.5 2.69-.41a5 5 0 011.15 3c-.08-2.34 2.57-4.67 4.59-5.22 3.84-1.05 2 5.34 1.8 6a9.48 9.48 0 014-5.87 5.41 5.41 0 014.16-.47 2.18 2.18 0 011.21.94c.93 1.63-.22 3.71-.85 5.23-.78 1.87-1.49 4.05-1 6.09.92 4.3 7.42 5.17 7.42 5.17z" /><path class="cls-12" d="M221.26 156.3c-3.35-2.35-3-7.54-1.05-10.61.26-.42-.4-.8-.66-.38-2.17 3.47-2.36 9.07 1.32 11.65.41.28.79-.38.39-.66zM216 157c-4.31-2.35-4.13-6.72-2.89-10.87a.38.38 0 00-.73-.2c-1.35 4.52-1.39 9.2 3.24 11.73.47.26.85-.4.38-.66z" /><path class="cls-10" d="M228.93 194.36c-.21.79-.44 1.58-.67 2.36-.46 1.57-.93 3.14-1.43 4.68-14.59 2.57-23.65-4.23-27.34-7.88.77-1.54 1.53-3.09 2.27-4.63.6-1.24 1.18-2.46 1.74-3.67 8.13 7.21 19.74 8.78 25.43 9.14z" /><path class="cls-3" d="M229.21 193.58q.32-1.2.63-2.4c.2-.77.39-1.55.58-2.33s.36-1.48.52-2.23.37-1.67.54-2.51.3-1.43.44-2.14.32-1.73.48-2.6c.13-.7.25-1.41.37-2.11.14-.88.27-1.76.39-2.63.1-.71.21-1.41.3-2.12.11-.88.2-1.75.3-2.63.08-.71.16-1.43.23-2.14.08-.88.14-1.76.2-2.64.05-.71.11-1.42.15-2.14.05-1 .07-2 .1-3 0-.58.05-1.16.06-1.73 0 0-6.49-.88-7.48-5.15-.47-2 .23-4.22 1-6.09.64-1.52 1.78-3.6.85-5.23a2.18 2.18 0 00-1.21-.94 5.41 5.41 0 00-4.16.47 8.81 8.81 0 00-3.4 4.15.43.43 0 00-.16-.09c.35-1.95.45-4.66-1.86-4.27h-.35c-2 .55-4.67 2.88-4.59 5.22v-.07a.33.33 0 000-.16 5 5 0 00-1.13-2.79c-.91-1.09-1.94-.51-2.69.41q-.18.22-.34.47c-3.39 5.13-2.73 19.09 3.54 20.75 0 0-3.86 9.45-9 20.44-.57 1.21-1.15 2.43-1.74 3.67-.74 1.54-1.5 3.09-2.27 4.63-4 8-8.39 15.86-12.17 20.64-5.63-6.51-16.53-8.69-29.48-7.9l-2-12.4c-19.14 11.62-51.51 8-51.51 8s.88 13.52 2.86 18.08c-21.11 9.68-37.47 22.81-35.9 33.88C74.21 274.7 95 312.8 111 321.64c.43.24.84.46 1.26.65-.49 1.07 4.55 2 6.75 2.57a9 9 0 01-.36 1.66c-.41 1.47-.11 4.36-2.07 6.5-12.27 13.42-21.38 43.35-21.38 43.35s69.16 29.87 109 0c2.35-2.35 2-7.88 2-10.84.19-13.53-2-27.33-3.2-40.81-1.26-14.06-2.61-28.12-4.42-42.13-.46-3.56-1-7.12-1.54-10.66-.16-.95-1.92-6.92-1.4-7.52a67.71 67.71 0 004.32-6.08c1.88-2.51 2.92-4 2.92-4l-.76.57a247.62 247.62 0 0024.74-53.28c.5-1.54 1-3.11 1.43-4.68l.06-.21c.21-.71.42-1.43.61-2.15.04-.32.16-.66.25-1z" /><path class="cls-10" d="M202.6 320.23l-.34.36c-.18.19-.39.39-.59.59a39 39 0 01-8.9 6.31c-.21.12-.44.23-.67.34a64.18 64.18 0 01-13.52 5l-.74.18a98.78 98.78 0 01-14.79 2.41l-.8.07a139.74 139.74 0 01-14.66.43h-.76c-4.57-.12-9.5-.44-14.78-1l-.75-.08q-5.29-.56-11.09-1.48l-.76-.11-2.91-.49c.92-2.75 1.66-5 2.07-6.5l2.45.34.76.1c3.08.39 6.62.76 10.45 1l.76.05c4.28.29 8.92.48 13.73.43h.76c4.3-.06 8.73-.29 13.15-.77l.75-.09a99.23 99.23 0 0013.65-2.46c.25-.05.5-.12.74-.18a67.13 67.13 0 0013.07-4.86c.23-.11.46-.23.68-.35a46.6 46.6 0 008.52-5.61l.6-.51a38.16 38.16 0 003-2.87c.26 3.26.47 5.95.92 9.75z" /><path class="cls-20" d="M121.83 326.73c-.44 2.24-1 4.45-1.61 6.65l-.76-.11q1-3.28 1.61-6.64zM133 327.82c-.4 2.36-.73 4.72-1 7.11l-.75-.08q.38-3.56 1-7.08zM147.59 335.95h-.76c-.08-2.56-.1-5.12-.06-7.68h.76q-.06 3.84.06 7.68zM163.06 335.45l-.8.07a20.34 20.34 0 01-.51-2.83l-1.06-5.22.75-.09.82 4a18.58 18.58 0 00.8 4.07zM178.58 332.86l-.74.18q-1.19-4.12-2.76-8.12c.25-.05.5-.12.74-.18 1.05 2.67 1.96 5.37 2.76 8.12zM192.77 327.5c-.21.12-.44.23-.67.34q-1.75-3.92-3.2-8c.23-.11.46-.23.68-.35.96 2.73 2.03 5.39 3.19 8.01zM202.26 320.6c-1-2.46-2.47-4.74-3.56-7.2l-.6.51c1.12 2.46 2.58 4.77 3.57 7.28z" /><path class="cls-13" d="M367 168.74a41 41 0 01-9 1 40.5 40.5 0 110-81h.13c1.17 0 2.3.05 3.44.15h.25a40.56 40.56 0 0118.44 6.49c8.18 22.39 4.79 49.73-13.26 73.36z" /><path class="cls-17" d="M366.63 136.73c-4.19 11.4-13 20.37-21.61 29-.48.47-.94.94-1.43 1.41A40.51 40.51 0 01358 88.73h.13c4.28 5.22 7.25 12.9 8.76 17.58a47.21 47.21 0 01-.26 30.42z" /><path class="cls-13" d="M328.85 105.82a2.24 2.24 0 00.13 2.66 2.13 2.13 0 001.81.38 8 8 0 002-.73c1-.46 1.93-.91 2.86-1.43.58-.32 1.21-.76 1.27-1.42.17-1.75-2.83-1.83-4-1.88a4.66 4.66 0 00-4.07 2.42zM337.84 107.46a1.37 1.37 0 00-.22.76 1.14 1.14 0 00.67.89 2.6 2.6 0 001.14.2c1.16 0 5.42-1 3.4-2.88-1.37-1.27-4.14-.43-4.99 1.03zM331.9 111a1.12 1.12 0 00.61.43c1.16.42 5.59-.61 3.74-2.25a3 3 0 00-2.39-.76c-.86.17-2.6 1.5-1.96 2.58z" /><path class="cls-3" d="M380.25 95.4a40.56 40.56 0 00-18.44-6.49h-.25c-1.13-.1-2.27-.15-3.44-.15H358a40.5 40.5 0 100 81 41 41 0 009-1c18.05-23.65 21.44-50.99 13.25-73.36z" /><path class="cls-4" d="M340.5 97.63l18.24 5.76-.39-22.95-9.88-16.95-9.53 14.4 1.56 19.74z" /><path class="cls-22" d="M348.47 63.49l17.49-1.93 9.87 13.39-17.48 5.49-9.88-16.95z" /><path class="cls-23" d="M358.35 80.44l.39 22.95 17.09-7.59V74.95l-17.48 5.49z" /><path class="cls-10" d="M344.46 78.98l.37 5.21 6.15 1.17v-5.91l-6.52-.47z" /><path class="cls-4" d="M353.36 82.33c-1.77-.24-3.53-.55-5.3-.82 0-1.15 0-2.29-.09-3.45 0-.49-.8-.49-.76 0 .08 1.12.1 2.23.1 3.34a38.77 38.77 0 00-4.36-.4.38.38 0 000 .76 38.75 38.75 0 014.35.4 42.43 42.43 0 01-.41 5.13c-.07.48.66.69.73.2a44.5 44.5 0 00.43-5.22c1.77.27 3.53.58 5.31.82.48.06.48-.7 0-.76z" /><path class="cls-17" d="M287 303.1a151.32 151.32 0 01-27 36.75 149.7 149.7 0 01-46 31.05 58.79 58.79 0 01-.92-9.47c-.57-35 31-62.39 59-61.11a53.51 53.51 0 017.6.87 52.64 52.64 0 017.32 1.91z" /><path class="cls-13" d="M284.85 302.43a1.1 1.1 0 00-.31-.13c-.5-.13-1-.26-1.57-.38-1.1-.28-2.22-.52-3.35-.73v.06c-2.53-.45-4.65-.73-4.65-.73l-1.12 8.31-.33.48-14.52 7.95 10.19-1.66c-7.59 10.93-16.12 21.26-26.34 29.74a89.32 89.32 0 01-24.93 14.88 37.15 37.15 0 01-4.93 1.22 58.79 58.79 0 00.92 9.47 149.7 149.7 0 0046-31.05 151.32 151.32 0 0027-36.75c-.61-.25-1.33-.47-2.06-.68z" /><path class="cls-3" d="M287 303.22A151.32 151.32 0 01260 340a149.7 149.7 0 01-46 31.05 58.78 58.78 0 01-.92-9.47c-.57-35 31-62.39 59-61.11a53.52 53.52 0 017.6.87 52.65 52.65 0 017.32 1.88z" /><path class="cls-4" d="M233.56 318.11h26.85l-.54-16.17-13.93-15.09-13.57 15.5 1.19 15.76z" /><path class="cls-22" d="M245.94 286.85l19.91-5s9.67 11.75 10.88 13.63c-.74.47-16.87 6.5-16.87 6.5z" /><path class="cls-23" d="M259.86 301.94l.54 16.17 17-8.74s-.2-14-.63-13.94-16.91 6.51-16.91 6.51z" /><path class="cls-10" d="M251.38 307.78h-10.85l-.55-6.04 11.4.2v5.84z" /><path class="cls-4" d="M252.48 304.74c-2.19.08-4.34.07-6.49 0a32.15 32.15 0 00-.31-4c-.08-.48-.81-.28-.73.2a29.86 29.86 0 01.29 3.76c-2.12-.08-4.23-.2-6.38-.37-.49 0-.49.72 0 .76 2.16.17 4.29.29 6.41.37 0 1 .07 2 .18 3 .05.48.81.49.76 0-.11-1-.15-2-.18-3 2.14.06 4.28.07 6.47 0 .5.02.5-.74-.02-.72z" /><path class="cls-13" d="M97.61 368.78a38.91 38.91 0 01-1.34 7.34c-39-14-55.89-41.16-62.78-66.28a46.88 46.88 0 016.81-2.45 47.65 47.65 0 0112.63-1.7c23.41 0 47.14 35.41 44.68 63.09z" /><path class="cls-17" d="M97.61 368.78c-35.66-13.09-52.84-50.18-57.31-61.39a47.65 47.65 0 0112.63-1.7c23.41 0 47.14 35.41 44.68 63.09z" /><path class="cls-3" d="M52.93 305.69a47.65 47.65 0 00-12.63 1.7 46.88 46.88 0 00-6.81 2.45c6.89 25.12 23.78 52.26 62.78 66.28a38.91 38.91 0 001.34-7.34c2.46-27.68-21.27-63.09-44.68-63.09z" /><path class="cls-4" d="M46.79 314.86L45 292.78l9.73-14.56 10.13 10.97.48 22.1-18.55 3.57z" /><path class="cls-22" d="M29.92 290.68l15.08 2.1 9.73-14.56-17.83-1.15-7.26 10.77.28 2.84z" /><path class="cls-23" d="M46.79 314.86L34 311.48c-.16-.55-.31-1.09-.47-1.64a120.29 120.29 0 01-3.57-19.16l15.04 2.1z" /><path class="cls-10" d="M52.3 288.51l.69 7.07 6.19-.63v-7.01l-6.88.57z" /><path class="cls-4" d="M60.88 290.25c-1.35.24-2.73.35-4.1.45l-.21-4.12c0-.49-.78-.49-.76 0l.21 4.18a34.62 34.62 0 00-4.14.51c-.48.1-.28.83.2.73a33.68 33.68 0 014-.5l.23 4.53c0 .49.78.49.76 0l-.23-4.59c1.43-.11 2.86-.22 4.26-.47.46-.07.26-.8-.22-.72z" /><circle class="cls-10" cx="362.15" cy="207.55" r="1.11" /><circle class="cls-10" cx="488.67" cy="140.39" r="1.11" /><circle class="cls-10" cx="476.35" cy="116.65" r="1.11" /><circle class="cls-10" cx="362.15" cy="274.04" r="1.11" /><path class="cls-2" d="M427.28 167.48c-11.6 9.19-23.16 18.34-35.21 26.95-17.63 12.6-38.55 22-53 38.67-18 20.73-18.15 50.2-8.15 74.83 12.17 30 41.64 52.71 73.37 58.14 32.67 5.59 68.93-3.31 93.56-26a88.67 88.67 0 008.81-9.35c25.91-31.91 24-72.08 16.33-110.2-2.78-13.72-6.13-27.56-6-41.64.12-14.55 7.55-26.66 8.63-40.85 1.66-22-16.26-30.93-35.74-27.69-30.16 5.03-45.07 43.25-62.6 57.14z" /><path class="cls-3" d="M427.28 168.28c-11.6 9.19-23.16 18.34-35.21 26.95-17.63 12.6-38.55 22-53 38.67-18 20.73-18.15 50.2-8.15 74.83 12.17 30 41.64 52.71 73.37 58.14 32.67 5.59 68.93-3.31 93.56-26a88.67 88.67 0 008.81-9.35c25.91-31.91 24-72.08 16.33-110.2-2.78-13.72-6.13-27.56-6-41.64.12-14.55 7.55-26.66 8.63-40.85 1.66-22-16.26-30.93-35.74-27.69-30.16 5.03-45.07 43.25-62.6 57.14z" /><path class="cls-13" d="M513.13 279.17a83 83 0 11-74.18-91 81.28 81.28 0 019.58 1.55 83 83 0 0164.6 89.45z" /><path class="cls-17" d="M482.79 263.62A79.8 79.8 0 01370.7 328.3 83 83 0 01439 188.19a81.28 81.28 0 019.58 1.55 79.72 79.72 0 0134.21 73.88z" /><path class="cls-13" d="M437.68 252.14l53.45-5.79-11.22-21.72-42.23 27.51zM360.43 236.48a2.86 2.86 0 00.25.59 3 3 0 003 1.21 8.16 8.16 0 005.75-4.64 4.07 4.07 0 00-.77-4.59 3.3 3.3 0 00-3.09-.53c-2.42.74-6.03 5.04-5.14 7.96zM373.09 237.1a1.58 1.58 0 00-.18-.31 1.66 1.66 0 00-1.73-.47 4.49 4.49 0 00-2.86 2.89 2.24 2.24 0 00.7 2.46 1.82 1.82 0 001.72.1c1.26-.56 3.01-3.13 2.35-4.67zM459.36 308.65a2.67 2.67 0 00-.3-.52 2.82 2.82 0 00-2.95-.81 7.65 7.65 0 00-4.87 4.92 3.81 3.81 0 001.19 4.19 3.1 3.1 0 002.93.17c2.22-.94 5.13-5.33 4-7.95zM464.12 301.14a1.66 1.66 0 00-.19-.32 1.75 1.75 0 00-1.82-.5 4.74 4.74 0 00-3 3 2.36 2.36 0 00.74 2.6 1.92 1.92 0 001.81.11c1.34-.55 3.17-3.27 2.46-4.89zM448 313.88a1.66 1.66 0 00-.18-.32 1.75 1.75 0 00-1.82-.5 4.74 4.74 0 00-3 3 2.36 2.36 0 00.74 2.6 1.92 1.92 0 001.81.11c1.38-.56 3.18-3.27 2.45-4.89zM366 241.16a1.58 1.58 0 00-.18-.31 1.66 1.66 0 00-1.73-.47 4.49 4.49 0 00-2.86 2.89 2.24 2.24 0 00.7 2.46 1.82 1.82 0 001.72.1c1.3-.56 3-3.13 2.35-4.67z" /><circle class="cls-3" cx="430.57" cy="270.07" r="83.06" transform="rotate(-84.19 430.58 270.07)" /><path class="cls-22" d="M437.68 252.14l42.23-27.51 18.8-52.86-38.98 19.26-22.05 61.11z" /><path class="cls-4" d="M459.73 191.03l-3.12 8.63-18.93 52.48-49.67-6.7-15.67-48.5-2.65-8.19 36.36-52.21 53.68 54.49z" /><path d="M459.73 191l-3.12 8.64-49.16-52s-29.28 40.8-35.12 49.25l-2.64-8.19 36.36-52.2z" style="mix-blend-mode:multiply" fill="#c1e1ea" opacity=".44" /><path class="cls-10" d="M399.67 180.08l-.46 19.6 23.9 2.42.62-19.58-24.06-2.44z" /><path class="cls-4" d="M425.72 192.3q-7-.44-13.9-1.16l.2-11.08c0-.7-1.08-.82-1.09-.11l-.2 11.09q-7.57-.8-15.1-1.93c-.7-.1-.81 1-.11 1.09q7.58 1.14 15.19 1.94l-.21 11.61c0 .7 1.08.82 1.09.11l.21-11.61q6.89.71 13.81 1.15c.7.04.82-1.06.11-1.1z" /><path class="cls-22" d="M517.63 176.15l-41 25.71-2.89 1.81a4.51 4.51 0 01-6.51-.1q-30-32.33-60-64.64l-45.13 64.82c-3.24 4.65-10.34-.54-7.1-5.19l48.18-69.21a4 4 0 011.86-1.45l2.46-.91 58.5-21.74z" /><path class="cls-23" d="M476.58 201.86l-2.89 1.81a4.51 4.51 0 01-6.51-.1q-30-32.33-60-64.64l-45.13 64.82c-3.24 4.65-10.34-.54-7.1-5.19l48.18-69.21a4 4 0 011.86-1.45l2.46-.91z" /><path class="cls-13" d="M216.76 86.28c-1 0-2-.11-3.06-.21l.1-1c1 .1 2 .17 3 .2zM200 309.38h-1.94v-1H204.17v1c-1.4-.02-2.78 0-4.17 0zm-8.05-.2c-2-.1-4.07-.23-6.1-.39l.08-1c2 .16 4.06.29 6.06.39zm18.32-.11l-.06-1c2-.13 4.06-.29 6.05-.5l.1 1c-2.01.2-4.06.37-6.1.5zm-30.5-.86c-2-.23-4.05-.48-6.06-.77l.14-1c2 .28 4 .54 6 .76zm42.65-.39l-.15-1 1.12-.17c1.61-.25 3.25-.53 4.87-.83l.19 1c-1.63.31-3.28.59-4.91.84zm-54.75-1.31q-2.6-.44-5.19-.95l-.82-.16.2-1 .81.16q2.58.5 5.17.94zm66.77-1l-.23-1c1.95-.45 3.93-.95 5.89-1.48l.27 1c-1.97.57-3.97 1.07-5.92 1.52zm-78.74-1.42c-2-.45-4-.93-5.94-1.44l.25-1c2 .5 4 1 5.91 1.43zm90.54-1.78l-.3-1c1.91-.59 3.85-1.24 5.76-1.91l.34 1c-1.93.7-3.88 1.35-5.8 1.95zm-102.37-1.26c-1.94-.56-3.91-1.15-5.85-1.77l.31-1c1.93.61 3.88 1.21 5.82 1.76zm113.9-2.78l-.37-.94c1.86-.72 3.75-1.49 5.63-2.28l.4.93c-1.9.83-3.8 1.6-5.67 2.33zm-125.53-.93c-1.92-.67-3.85-1.38-5.73-2.11l.36-.95c1.88.72 3.79 1.43 5.7 2.1zM269 293.55l-.42-.92c1.82-.83 3.67-1.71 5.49-2.6l.45.91c-1.83.9-3.69 1.78-5.52 2.61zM120.83 293c-1.86-.78-3.74-1.6-5.6-2.44l.42-.92c1.84.84 3.72 1.66 5.57 2.43zM280 288.19l-.47-.9q2.69-1.4 5.36-2.86l.49.89q-2.72 1.47-5.38 2.87zm-170.25-.25c-1.82-.9-3.65-1.83-5.43-2.78l.48-.89c1.77.95 3.59 1.88 5.4 2.77zm180.94-5.6l-.5-.88q2.63-1.51 5.25-3.07l.52.87q-2.66 1.56-5.3 3.08zm-191.75-.14c-1.77-1-3.54-2.08-5.24-3.13l.53-.86c1.69 1.05 3.45 2.1 5.21 3.12zm202.19-6.11l-.53-.86q2.58-1.6 5.15-3.23l.54.86q-2.57 1.63-5.16 3.23zm-212.56-.34c-1.69-1.13-3.38-2.31-5-3.48l.59-.82c1.62 1.17 3.3 2.34 5 3.46zm222.85-6.21l-.55-.85q2.55-1.66 5.08-3.35l.56.84q-2.51 1.7-5.1 3.37zm-232.75-.94c-1.6-1.25-3.2-2.54-4.75-3.84l.65-.78c1.54 1.29 3.13 2.57 4.72 3.81zm242.89-5.83l-.57-.84 5-3.43.57.84zm-252.25-2c-1.5-1.36-3-2.77-4.45-4.19l.71-.72c1.43 1.39 2.92 2.79 4.43 4.14zm262.3-4.88L331 255l5-3.48.58.83zm-271-3.68c-1.4-1.49-2.78-3-4.1-4.54l.77-.66c1.31 1.51 2.68 3 4.07 4.5zm281-3.29l-.58-.83 5-3.48.58.83zM52.58 243c-1.26-1.59-2.51-3.22-3.7-4.87l.82-.6c1.19 1.63 2.42 3.26 3.68 4.83zm299-1l-.58-.83 4.6-3.17.47-.32.57.84-.47.32zm10.09-6.81l-.55-.85c1.85-1.18 3.56-2.22 5.22-3.19l.51.88c-1.61.91-3.31 1.97-5.14 3.12zm-316.28-2.11l-1-1.54c-.76-1.18-1.52-2.41-2.25-3.64l.87-.52c.73 1.22 1.48 2.43 2.23 3.61l1 1.53zm326.84-3.95l-.45-.91c1.92-.94 3.81-1.77 5.62-2.47l.36.95c-1.76.69-3.64 1.5-5.53 2.43zm11.28-4.26l-.25-1a41 41 0 016.07-1.06l.1 1a40 40 0 00-5.92 1.06zm-344.38-2.3c-.95-1.78-1.86-3.63-2.73-5.47l.92-.43c.86 1.83 1.77 3.66 2.71 5.43zm-5.19-11.07c-.77-1.87-1.51-3.79-2.19-5.71l1-.34c.68 1.9 1.41 3.81 2.18 5.66zM29.82 200c-.6-2-1.15-3.94-1.65-5.89l1-.25c.49 1.94 1 3.9 1.64 5.84zm-3-11.85c-.41-2-.78-4-1.09-6l1-.16c.31 2 .68 4 1.08 6zm-1.9-12.08c-.22-2-.39-4.07-.52-6.09l1-.06c.12 2 .3 4 .51 6zm-.74-12.2v-1.53c0-1.54 0-3.08.09-4.58h1c-.06 1.49-.08 3-.09 4.55v1.52zm1.47-12.13l-1-.09c.18-2 .41-4.08.7-6.08l1 .14c-.35 1.97-.55 3.99-.73 6.01zm1.7-12l-1-.19c.39-2 .84-4 1.34-6l1 .25c-.53 1.94-.98 3.93-1.37 5.92zm3-11.75l-1-.3c.61-1.94 1.29-3.89 2-5.78l.95.36a80.11 80.11 0 00-2 5.73zm4.31-11.32l-.92-.42c.84-1.86 1.74-3.71 2.69-5.5l.9.47c-.99 1.78-1.89 3.59-2.71 5.43zm5.65-10.71l-.87-.53c1.06-1.74 2.19-3.46 3.36-5.12l.83.58c-1.2 1.62-2.31 3.32-3.36 5.05zm7-9.91l-.79-.64c1.27-1.58 2.62-3.14 4-4.64l.74.69c-1.45 1.46-2.78 3-4.03 4.54zm8.2-8.9l-.7-.73c1.46-1.39 3-2.76 4.57-4.08l.65.78c-1.63 1.27-3.15 2.62-4.6 4zm152.19-2c-1.92-.39-3.92-.89-5.95-1.49l.29-1c2 .59 4 1.09 5.86 1.47zm-11.75-3.44c-1.81-.67-3.66-1.42-5.67-2.28l.4-.93c2 .86 3.84 1.59 5.63 2.26zM64.72 79.35l-.6-.82c1.63-1.2 3.32-2.37 5-3.47l.55.85C68 77 66.33 78.17 64.72 79.35zm119.91-2.41c-1.84-.86-3.67-1.73-5.51-2.62l.44-.91c1.83.88 3.66 1.76 5.5 2.61zM74.9 72.79l-.5-.88c1.77-1 3.59-2 5.42-2.84l.44.91a91.04 91.04 0 00-5.36 2.81zm98.73-1.1c-1.83-.88-3.67-1.74-5.51-2.58l.42-.92c1.85.84 3.69 1.71 5.53 2.59zm-87.84-4.22l-.39-.94c1.87-.78 3.79-1.52 5.71-2.19l.34 1c-1.9.66-3.81 1.36-5.66 2.13zm76.75-.78c-1.66-.68-3.28-1.31-4.82-1.86l-.85-.3.33-1 .86.3c1.55.56 3.19 1.19 4.86 1.88zm-65.32-3.23l-.28-1c2-.56 3.95-1.07 5.93-1.52l.22 1c-1.95.46-3.93.96-5.87 1.52zm53.87-.72c-1.93-.53-3.91-1-5.89-1.41l.2-1c2 .41 4 .89 6 1.42zm-42-1.95l-.17-1c2-.33 4-.61 6.06-.83l.11 1c-2.04.22-4.09.5-6.09.83zm30.19-.48c-2-.27-4-.49-6-.64l.08-1c2 .15 4.08.37 6.09.65zm-18.14-.8v-1c2-.1 4.09-.13 6.12-.1v1c-2.12-.04-4.15 0-6.17.09zM398.5 224.19c-1-.18-2-.31-3-.4l.09-1c1 .09 2.06.23 3.06.41z" /><path class="cls-4" d="M505.18 294.06c-2 0-4.07-.18-6.11-.4l.11-1c2 .21 4 .35 6 .39zm6.12-.11l-.06-1c1.33-.08 2.67-.2 4-.35q1-.12 2-.27l.15 1q-1 .15-2.05.28c-1.34.14-2.69.26-4.03.39zm-18.3-1.17c-2-.37-4-.82-6-1.34l.26-1c2 .52 3.95 1 5.9 1.32zm30.38-.66l-.25-1a65.94 65.94 0 005.78-1.72l.33 1c-1.89.6-3.87 1.23-5.83 1.72zm-42.2-2.45c-1.91-.65-3.83-1.38-5.72-2.17l.39-.93c1.86.78 3.76 1.5 5.65 2.15zM535 288.1l-.42-.92a66.34 66.34 0 005.38-2.74l.5.88c-1.81 1-3.65 1.94-5.46 2.78zm-65-3.15c-1.8-.9-3.61-1.88-5.37-2.91l.51-.87c1.75 1 3.54 2 5.32 2.88zm75.6-2.95l-.58-.83a63.8 63.8 0 004.78-3.68l.66.77a46.567 46.567 0 01-4.86 3.74zm-86.21-3.28c-1.68-1.13-3.35-2.34-5-3.58l.62-.8c1.59 1.23 3.24 2.42 4.9 3.54zm95.53-4.65l-.73-.7a58.67 58.67 0 004-4.54l.8.62a59.19 59.19 0 01-4.07 4.67zm7.54-9.65l-.86-.53a53.38 53.38 0 002.88-5.29l.92.43a54.26 54.26 0 01-2.94 5.44zm5.23-11.08l-1-.32a56.33 56.33 0 001.62-5.8l1 .22a57.51 57.51 0 01-1.62 5.95zm2.68-11.95l-1-.12c.23-2 .37-4 .41-6h1a61.21 61.21 0 01-.42 6.17zm-.74-12.17c-.13-2-.34-4-.64-6l1-.14c.3 2 .51 4.1.64 6.09zm-1.71-12c-.42-1.92-.91-3.9-1.47-5.87l1-.28c.56 2 1.06 4 1.48 5.93zm-3.28-11.65c-.64-1.87-1.35-3.78-2.11-5.68l.94-.38c.76 1.91 1.48 3.84 2.12 5.73zm-4.48-11.25c-.81-1.8-1.69-3.64-2.61-5.47l.91-.45c.92 1.84 1.81 3.7 2.62 5.51zm-5.42-10.84q-1.12-2-2.28-4l-.72-1.23.87-.51.72 1.23q1.17 2 2.29 4.06zm-6.07-10.53c-1.18-2.06-2.09-3.77-2.88-5.39l.91-.45c.78 1.59 1.69 3.29 2.85 5.33zm-5.29-11c-.39-1.1-.73-2.2-1-3.28-.23-.87-.43-1.77-.6-2.66l1-.19c.17.87.36 1.74.58 2.59.28 1 .61 2.12 1 3.19zm-2.32-12c0-.75-.05-1.51-.05-2.27 0-1.24 0-2.54.13-3.86l1 .07c-.09 1.3-.13 2.58-.13 3.8v2.22zm1.75-12.07l-1-.15c.27-1.83.61-3.8 1-6l1 .19c-.41 2.22-.74 4.18-1.01 5.99zm2.26-11.88l-1-.21.32-1.48c.32-1.49.65-3 1-4.46l1 .21c-.31 1.49-.64 3-1 4.47zm2.45-11.93l-1-.18c.38-2.17.67-4.13.87-6l1 .11c-.19 1.9-.48 3.88-.87 6.07zm1.3-12.16h-1v-1a47.12 47.12 0 00-.26-5l1-.11a48.1 48.1 0 01.27 5.12q0 .49-.01.99zM546.48 90a37.47 37.47 0 00-2-5.65l.93-.41a38.62 38.62 0 012 5.8zM437.32 79.88l-.55-.85a15.27 15.27 0 004.18-4.09l.83.58a16.27 16.27 0 01-4.46 4.36zm104.31-.81a43.28 43.28 0 00-3.6-4.81l.77-.66a44.41 44.41 0 013.68 4.92zm-107.68-2.68v-.89a16.31 16.31 0 01.92-5.29l1 .33a15.31 15.31 0 00-.86 5v.82zm-211.77-.93l-.81-.6L225 70l.81.61zM533.83 70a55.25 55.25 0 00-4.69-3.79l.59-.82a56 56 0 014.78 3.86zm-89.34 0l-1-.3a20.92 20.92 0 00.93-5.84h1a21.94 21.94 0 01-.93 6.07zm-215-4.19l-.81-.61q1.84-2.42 3.71-4.83l.8.62q-1.88 2.33-3.71 4.75zm209.11-.39l-.81-.61a19.83 19.83 0 012.21-2.58 24.44 24.44 0 012.19-1.81l.6.82a23.23 23.23 0 00-2.1 1.74 18.7 18.7 0 00-2.11 2.37zm85.49-2.46c-1.71-1-3.51-1.94-5.35-2.8l.43-.92c1.87.88 3.69 1.84 5.43 2.85zM448 58.26l-.42-.92a44.5 44.5 0 015.77-2.12l.29 1a43.61 43.61 0 00-5.64 2.04zm-4.19-.38a33.54 33.54 0 00-1.81-5.69l.93-.39a34.78 34.78 0 011.91 5.86zm69.35-.13c-1.87-.7-3.8-1.34-5.74-1.89l.28-1c2 .56 3.92 1.21 5.81 1.92zm-276.22-1.59l-.79-.63q1.9-2.38 3.85-4.72l.78.65q-1.94 2.32-3.84 4.7zm222.55-1.44l-.21-1c2-.42 4-.79 6-1.1l.15 1c-1.97.32-3.97.68-5.94 1.1zm42.06-.31q-1.56-.32-3.12-.58t-2.84-.43l.14-1q1.44.2 2.87.43t3.16.59zm-30.11-1.51l-.09-1c2-.19 4.07-.32 6.1-.4v1c-1.97.07-4 .2-6 .39zm18.13-.14c-2-.16-4-.26-6-.3v-1c2 0 4.08.14 6.1.3zm-244.86-5.93l-.76-.67c1.36-1.57 2.73-3.1 4.06-4.55l.75.68c-1.33 1.45-2.69 2.97-4.05 4.54zm194.53 0c-.58-1-1.23-2-1.92-3.07q-.67-1-1.36-2l.83-.59q.71 1 1.38 2c.7 1.06 1.36 2.11 1.95 3.12zm-186.32-8.94l-.73-.71c1.44-1.48 2.9-2.93 4.33-4.3l.7.73c-1.42 1.39-2.87 2.8-4.3 4.28zM432.29 37c-1.27-1.53-2.63-3-4-4.5l.73-.7c1.42 1.47 2.79 3 4.08 4.56zm-170.62-7.49l-.67-.76c1.55-1.37 3.11-2.7 4.65-3.95l.64.79a143.91 143.91 0 00-4.62 3.92zm162.24-1.23c-1.48-1.33-3-2.63-4.64-3.88l.62-.8c1.61 1.26 3.19 2.58 4.69 3.92zm-152.82-6.39l-.6-.82c1.66-1.21 3.35-2.38 5-3.48l.55.85a143.57 143.57 0 00-4.95 3.45zm143.29-1a91.88 91.88 0 00-5.11-3.23l.51-.87c1.76 1 3.5 2.13 5.17 3.27zm-133.16-5.61l-.5-.88c1.78-1 3.59-2 5.39-2.88l.45.91c-1.79.88-3.56 1.84-5.34 2.85zM404 14.7c-1.77-.91-3.61-1.78-5.46-2.6l.41-.93c1.87.83 3.73 1.71 5.52 2.63zM292.05 9.92l-.39-.92c1.85-.77 3.77-1.5 5.71-2.17l.33 1a70.4 70.4 0 00-5.65 2.09zm100.86-.12c-1.85-.71-3.78-1.39-5.71-2l.31-1c2 .63 3.89 1.32 5.76 2zM381.39 6c-1.93-.53-3.91-1-5.88-1.46l.22-1c2 .45 4 .94 5.93 1.47zm-77.91 0l-.27-1c1.92-.54 3.91-1 5.92-1.49l.22 1c-1.99.43-3.97.92-5.87 1.49zm66.09-2.58c-2-.35-4-.67-6-.95l.14-1c2 .28 4 .6 6 1zm-54.28-.08l-.17-1c2-.34 4-.65 6-.92l.13 1c-2 .24-4.02.58-5.96.89zm42.28-1.58c-2-.19-4-.35-6-.46l.06-1c2 .12 4.07.27 6.08.47zm-30.26 0l-.09-1c2-.18 4-.33 6.07-.45l.16 1h-.13c-2.03.09-4.06.24-6.02.42zM339.4 1V0q3-.06 6.1 0v1h-6.1z" /><path class="cls-7" d="M521.6 324.16a92.72 92.72 0 01-44.89 39c-.45.18-.25.92.2.73a93.55 93.55 0 0045.34-39.33.38.38 0 00-.65-.4zM533.07 314.83a66.8 66.8 0 01-9.16 16.31c-.3.39.36.77.66.38A67.52 67.52 0 00533.8 315c.2-.43-.56-.62-.73-.17z" /></g></g></g>
</svg>
